<svg xmlns="http://www.w3.org/2000/svg" width="1200" height="675" viewBox="0 0 1200 675">
  <defs>
    <linearGradient id="bg" x1="0" y1="0" x2="1" y2="1">
      <stop stop-color="#e9fff3"/>
      <stop offset="1" stop-color="#d8f0ff"/>
    </linearGradient>
  </defs>
  <rect width="1200" height="675" fill="url(#bg)"/>
  <rect x="78" y="62" width="1044" height="550" rx="34" fill="#ffffff"/>
  <rect x="118" y="104" width="964" height="60" rx="18" fill="#1e8e6a"/>
  <text x="154" y="143" font-family="Arial, sans-serif" font-size="30" font-weight="800" fill="#fff">PetLove</text>
  <rect x="790" y="124" width="82" height="14" rx="7" fill="#fff" opacity=".85"/>
  <rect x="902" y="124" width="82" height="14" rx="7" fill="#fff" opacity=".65"/>
  <rect x="148" y="218" width="360" height="306" rx="34" fill="#d8f6e8"/>
  <circle cx="328" cy="354" r="92" fill="#ffffff"/>
  <circle cx="286" cy="318" r="28" fill="#1e8e6a"/>
  <circle cx="370" cy="318" r="28" fill="#1e8e6a"/>
  <circle cx="328" cy="358" r="36" fill="#1e8e6a"/>
  <circle cx="276" cy="424" r="26" fill="#1e8e6a"/>
  <circle cx="380" cy="424" r="26" fill="#1e8e6a"/>
  <text x="558" y="278" font-family="Arial, sans-serif" font-size="58" font-weight="800" fill="#184a3a">Pet Care Services</text>
  <text x="562" y="338" font-family="Arial, sans-serif" font-size="25" fill="#5d746b">Care, grooming, walking, and sitting for pets.</text>
  <rect x="562" y="386" width="180" height="50" rx="25" fill="#1e8e6a"/>
  <text x="604" y="419" font-family="Arial, sans-serif" font-size="18" font-weight="700" fill="#fff">Book Care</text>
  <rect x="562" y="488" width="126" height="74" rx="16" fill="#ecfff5"/>
  <rect x="720" y="488" width="126" height="74" rx="16" fill="#ecfff5"/>
  <rect x="878" y="488" width="126" height="74" rx="16" fill="#ecfff5"/>
  <rect x="590" y="520" width="70" height="12" rx="6" fill="#1e8e6a"/>
  <rect x="748" y="520" width="70" height="12" rx="6" fill="#1e8e6a"/>
  <rect x="906" y="520" width="70" height="12" rx="6" fill="#1e8e6a"/>
</svg>
